# xmcd
#
# Track frame offsets:
#	150
#	13900
#	29052
#	41167
#	50050
#	67242
#	80472
#	97910
#	111522
#	127305
#	140120
#	158227
#	173185
#	187975
#
# Disc length: 2671
#
# Revision: 1
# Processed by: cddbd v1.5.1PL0 Copyright (c) Steve Scherf et al.
# Submitted via: CDex 1.50beta8
# Normalized: r0:TDELIM( - )
#
DISCID=d80a6d0e
DTITLE=Sveitasæla - Ýmsir
DYEAR=1989
DGENRE=Country
TTITLE0=Ronnie Milsap - (I'ma) Stand by my woman man (Robbins)
TTITLE1=Waylon Jennings - Luckenback Texas (Moman/Emmons)
TTITLE2=Dolly Parton - Joleen (Dolly Parton)
TTITLE3=Charley Pride - Kiss an angel good morning (B.Peters)
TTITLE4=Baillieand the Boys - I wish I had a hear of stone (W.Holyfield/R.Leigh)
TTITLE5=Don William - One good well(Kent Robbins/Mike Reid)
TTITLE6=Hot  House - Carzy(Willie Nelson)
TTITLE7=The Judds - Let me tell you about love (C.Perkins/P.Kennerley/B.Maher)
TTITLE8=Restless Heart - Big dreams in a small town (D.Robbins/V.Stephenson/T.Dubois)
TTITLE9=Clint Black - Killin'time(C.Black/H.Nicholas)
TTITLE10=K.T.Ostlin - Hold me (K.T.Ostilin)
TTITLE11=Alabama - Love in the first degree(Hurt/Dubois)
TTITLE12=Keith Whitley - I wonderdo yhou think of me (S.D.Shafer)
TTITLE13=Jim Reeves - I love you because (Payne)
EXTD=YEAR: 1989
EXTT0=
EXTT1=
EXTT2=
EXTT3=
EXTT4=
EXTT5=
EXTT6=
EXTT7=
EXTT8=
EXTT9=
EXTT10=
EXTT11=
EXTT12=
EXTT13=
PLAYORDER=
